<?xml version="1.0" standalone="no"?><svg xmlns="http://www.w3.org/2000/svg" viewBox="0 0 1440 320"><path fill="#a9464e" fill-opacity="1" d="M0,288L30,256C60,224,120,160,180,128C240,96,300,96,360,80C420,64,480,32,540,58.7C600,85,660,171,720,197.3C780,224,840,192,900,181.3C960,171,1020,181,1080,181.3C1140,181,1200,171,1260,154.7C1320,139,1380,117,1410,106.7L1440,96L1440,0L1410,0C1380,0,1320,0,1260,0C1200,0,1140,0,1080,0C1020,0,960,0,900,0C840,0,780,0,720,0C660,0,600,0,540,0C480,0,420,0,360,0C300,0,240,0,180,0C120,0,60,0,30,0L0,0Z"></path></svg>